# xmcd CD database file
#
# Track frame offsets:
#	150
#	20475
#	40040
#
# Disc length: 803 seconds
#
# Revision: 1
# Processed by: cddbd v1.5.2PL0 Copyright (c) Steve Scherf et al.
# Submitted via: CDex 1.70beta2
#
DISCID=19032103
DTITLE=戸松 遥 - 産巣日の時
DYEAR=2008
DGENRE=J ポップ
TTITLE0=産巣日の時
TTITLE1=記憶の景色
TTITLE2=産巣日の時 -Instrumental
EXTD=YEAR: 2008
EXTT0=
EXTT1=
EXTT2=
PLAYORDER=
